<svg height="32" viewBox="0 0 32 32" width="32" xmlns="http://www.w3.org/2000/svg"><path d="m20 10h7v2h-7z"/><path d="m20 16h10v2h-10z"/><path d="m20 22h7v2h-7z"/><path d="m10 20.1839v-13.1839h-2v13.1839a3 3 0 1 0 2 0z"/><path d="m30 4h-17.0256a4.9829 4.9829 0 0 0 -8.9744 3v11.1108a7 7 0 1 0 10 0v-11.1108a5.0019 5.0019 0 0 0 -.1011-1h16.1011zm-21 24a4.9933 4.9933 0 0 1 -3.332-8.7183l.332-.2983v-11.9834a3 3 0 0 1 6 0v11.9834l.332.2983a4.9933 4.9933 0 0 1 -3.332 8.7183z"/><path d="m0 0h32v32h-32z" fill="none"/></svg>