<svg height="32" viewBox="0 0 32 32" width="32" xmlns="http://www.w3.org/2000/svg"><path d="m27.167 16.89-5.447-3.89 5.447-3.891 2.517.839.632-1.897-2.316-.772v-2.279h-2v2.485l-5 3.572v-5.69l2.555-1.703-1.11-1.664-2.445 1.63-2.445-1.63-1.11 1.664 2.555 1.703v5.69l-3-2.143v2.458l2.28 1.628-2.28 1.628v2.458l3-2.143v6.76l3.445 2.297 1.11-1.664-2.555-1.703v-5.69l5 3.572v2.485h2v-2.279l2.316-.773-.632-1.897z"/><path d="m12 23a3 3 0 0 1 -6 0z"/><path d="m9 30a6.9931 6.9931 0 0 1 -5-11.8892v-11.1108a5 5 0 0 1 10 0v11.1108a6.9931 6.9931 0 0 1 -5 11.8892zm0-26a3.0033 3.0033 0 0 0 -3 3v11.9834l-.332.2983a5 5 0 1 0 6.664 0l-.332-.2983v-11.9834a3.0033 3.0033 0 0 0 -3-3z"/><path d="m0 0h32v32h-32z" fill="none"/></svg>