<svg height="56" viewBox="0 0 56 56" width="56" xmlns="http://www.w3.org/2000/svg"><path d="m27.1918 8.3044c1 0 1.8261-.826 1.8261-1.8043v-4.6956c0-1-.8261-1.8045-1.8261-1.8045-.9782 0-1.8043.8045-1.8043 1.8044625v4.6956375c0 .9783.8261 1.8043 1.8043 1.8043zm10.0435 4.1957c.6739.6957 1.8695.7174 2.5869 0l3.3044-3.3478c.6956-.6957.6956-1.8479 0-2.5435-.6957-.6957-1.8261-.6957-2.5218 0l-3.3695 3.3696c-.6957.6956-.6739 1.8261 0 2.5217zm-20.3913 43.4999c6.2609 0 11.3478-5.0869 11.3478-11.3478 0-3.3043-1.3695-6.1956-3.9565-8.5434-.4782-.4348-.587-.674-.587-1.3261l.0218-2.087c1.1087.413 2.3044.6087 3.5217.6087 5.9783 0 10.7609-4.7826 10.7609-10.7609 0-5.9782-4.7826-10.7825-10.7609-10.7825-1.3478 0-2.6521.2608-3.8913.7608-.8913-2.9782-3.2608-4.8261-6.4565-4.8261-4.1087 0-6.8695 3.0218-6.8695 7.5653l.0217 19.5217c0 .6521-.1087.8913-.5652 1.3261-2.6087 2.3478-3.9565 5.2391-3.9565 8.5434 0 6.2609 5.0652 11.3478 11.3695 11.3478zm0-3.1521c-4.5217 0-8.1956-3.6957-8.1956-8.1957 0-2.7174 1.2826-5.1739 3.5869-6.7173.674-.4566.9348-.8696.9348-1.7609v-20.7826c0-2.7391 1.5-4.5 3.6739-4.5 2.1522 0 3.6304 1.7609 3.6304 4.5v20.7826c0 .8913.2609 1.3043.9348 1.7609 2.3044 1.5434 3.587 3.9999 3.587 6.7173 0 4.5-3.6522 8.1957-8.1522 8.1957zm10.3478-37.913c4.2609 0 7.5652 3.3261 7.5652 7.6086 0 4.2609-3.3043 7.587-7.5652 7.587-1.2391 0-2.4565-.3261-3.5217-.8913l.0217-13.3478c1.0653-.6087 2.2609-.9565 3.5-.9565zm-10.3695 34.9782c2.913 0 5.2608-2.3696 5.2608-5.2826 0-2.0435-1.1522-3.7174-2.826-4.6305-.6957-.3695-.9348-.6304-.9348-1.6956v-21.0869c0-1.1304-.6522-1.8261-1.5-1.8261-.8261 0-1.5.6957-1.5 1.8261v21.0869c0 1.0652-.2391 1.3261-.9348 1.6956-1.6739.9131-2.8261 2.587-2.8261 4.6305 0 2.9347 2.3478 5.2826 5.2609 5.2826zm26.3477-25.5652h4.7175c.9781 0 1.7826-.8261 1.7826-1.8044 0-.9999-.8045-1.8043-1.7826-1.8043h-4.7175c-.9565 0-1.7826.8044-1.7826 1.8043 0 .9783.8261 1.8044 1.7826 1.8044zm-2.5652 14.1522c.6957.6956 1.8261.6739 2.5218-.0218.6956-.6956.6956-1.8478 0-2.5217l-3.3479-3.3478c-.6956-.674-1.8478-.6957-2.5434 0-.6957.6956-.6957 1.8478 0 2.5434z"/></svg>